<svg width="24" height="24" viewBox="0 0 24 24" fill="none" xmlns="http://www.w3.org/2000/svg">
<g id="flowbite:cart-outline" clip-path="url(#clip0_1_98)">
<path id="Vector" d="M2.88 -0.200012H4.62858L7.54286 13.48M7.54286 13.48H16.8686M7.54286 13.48C6.92453 13.48 6.33152 13.7202 5.89429 14.1478C5.45707 14.5754 5.21143 15.1553 5.21143 15.76C5.21143 16.3647 5.45707 16.9446 5.89429 17.3722C6.33152 17.7998 6.92453 18.04 7.54286 18.04C8.1612 18.04 8.7542 17.7998 9.19143 17.3722C9.62866 16.9446 9.87429 16.3647 9.87429 15.76C9.87429 15.1553 9.62866 14.5754 9.19143 14.1478C8.7542 13.7202 8.1612 13.48 7.54286 13.48ZM16.8686 13.48C16.2502 13.48 15.6572 13.7202 15.22 14.1478C14.7828 14.5754 14.5371 15.1553 14.5371 15.76C14.5371 16.3647 14.7828 16.9446 15.22 17.3722C15.6572 17.7998 16.2502 18.04 16.8686 18.04C17.4869 18.04 18.0799 17.7998 18.5171 17.3722C18.9544 16.9446 19.2 16.3647 19.2 15.76C19.2 15.1553 18.9544 14.5754 18.5171 14.1478C18.0799 13.7202 17.4869 13.48 16.8686 13.48ZM6.96 10.06H17.8011L19.2 3.21999H5.56115" stroke="black" stroke-width="2" stroke-linecap="round" stroke-linejoin="round"/>
</g>
<defs>
<clipPath id="clip0_1_98">
<rect width="24" height="24" fill="white"/>
</clipPath>
</defs>
</svg>
