<svg width="32" height="32" viewBox="0 0 32 32" fill="none" xmlns="http://www.w3.org/2000/svg">
<path id="Vector" d="M15.0404 11.7071C15.431 11.3166 15.431 10.6834 15.0404 10.2929C14.6499 9.90237 14.0168 9.90237 13.6262 10.2929L15.0404 11.7071ZM9.33333 16L8.62623 15.2929C8.2357 15.6834 8.2357 16.3166 8.62623 16.7071L9.33333 16ZM13.6262 21.7071C14.0168 22.0976 14.6499 22.0976 15.0404 21.7071C15.431 21.3166 15.431 20.6834 15.0404 20.2929L13.6262 21.7071ZM22.6667 17C23.219 17 23.6667 16.5523 23.6667 16C23.6667 15.4477 23.219 15 22.6667 15V17ZM32 16C32 7.16344 24.8366 0 16 0V2C23.732 2 30 8.26801 30 16H32ZM16 0C7.16344 0 0 7.16344 0 16H2C2 8.26801 8.26801 2 16 2V0ZM0 16C0 24.8366 7.16344 32 16 32V30C8.26801 30 2 23.732 2 16H0ZM16 32C24.8366 32 32 24.8366 32 16H30C30 23.732 23.732 30 16 30V32ZM13.6262 10.2929L8.62623 15.2929L10.0404 16.7071L15.0404 11.7071L13.6262 10.2929ZM8.62623 16.7071L13.6262 21.7071L15.0404 20.2929L10.0404 15.2929L8.62623 16.7071ZM9.33333 17H22.6667V15H9.33333V17Z" fill="black"/>
</svg>
